<svg xmlns="http://www.w3.org/2000/svg" 
   pointer-events="none" class="leaflet-zoom-animated" width="1454" height="788" viewBox="-121 -66 1454 788" style="transform: translate3d(-121px, -66px, 0px) scale(1);"><g>
      <path class="leaflet-interactive" stroke="#201920" stroke-opacity="1" stroke-width="2" stroke-linecap="round" stroke-linejoin="round" fill="none" d="M363 286L363 282L362 283L360 279L364 277L363 274L366 271L367 272L370 269L372 269L372 267L375 268L377 266L378 269L384 269L389 261L394 262L397 259L398 260L398 258L404 256L407 253L414 251L414 244L417 241L416 240L419 239L419 235L416 228L416 222L412 220L412 218L425 214L433 216L434 215L431 212L431 210L437 192L444 195L453 196L457 194L459 192L457 181L461 177L463 178L466 176L468 172L467 171L469 169L475 169L477 176L482 178L484 182L490 182L491 185L494 184L494 186L497 188L499 195L501 195L502 198L502 201L500 203L501 206L499 209L500 216L501 215L504 217L505 216L511 218L521 218L532 226L537 226L536 229L538 229L539 234L545 243L551 242L570 245L586 245L593 250L594 249L599 252L609 253L610 255L614 256L617 253L634 246L644 247L655 244L663 236L667 235L670 232L666 226L667 221L670 217L683 221L687 219L692 213L699 213L705 208L704 207L709 202L713 202L714 199L718 200L720 198L725 197L727 199L734 198L733 193L723 183L718 182L714 186L705 184L702 187L699 184L699 182L701 180L708 160L716 164L723 159L729 157L730 154L728 154L728 152L733 145L735 137L738 134L740 134L741 131L740 126L738 124L735 125L735 123L743 115L744 116L760 112L764 112L768 115L769 114L771 117L774 118L780 118L780 121L782 121L783 125L786 127L785 130L787 131L786 132L789 137L788 138L790 139L790 145L793 148L794 155L796 155L795 160L798 164L805 163L805 165L811 165L811 167L813 167L817 172L821 172L819 175L822 179L820 181L824 187L835 186L840 181L842 182L849 178L856 178L853 179L852 184L854 186L848 192L849 193L846 200L847 203L840 216L837 217L830 214L828 216L829 217L823 219L826 229L826 235L824 241L819 243L820 246L817 243L817 241L814 240L813 245L811 247L810 246L807 251L799 251L802 256L800 258L793 257L791 255L792 254L790 254L791 253L788 254L783 263L776 266L770 271M403 353L400 350L400 348L403 345L405 349L407 347L407 343L402 337L402 333L405 330L399 326L397 318L392 319L385 316L385 314L382 315L380 312L381 309L378 306L376 306L376 304L368 302L370 300L372 301M629 443L627 443L628 440L626 440L628 436L626 434L621 435L617 431L615 431L613 435L608 435L605 438L603 436L601 436L598 439L595 436L593 436L592 439L587 438L587 450L583 449L583 445L575 447L575 445L573 445L572 442L568 442L568 436L570 434L565 432L565 428L563 426L565 424L559 424L555 426L554 425L556 423L554 421L556 417L555 416L563 408L562 407L564 403L564 395L561 392L561 394L559 392L559 388L555 386L555 384L553 386L554 387L552 387L553 390L550 392L543 387L539 387L536 388L536 390L533 392L528 393L522 399L518 400L510 400L510 394L506 394L505 389L500 390L491 387L487 391L485 396L483 394L484 389L482 388L480 390L475 391L471 391L466 388L464 390L462 388L462 390L458 386L455 387L454 383L451 384L446 379L446 377L442 379L437 374L435 374L435 372L434 373L433 371L431 371L430 368L425 367L423 371L409 361L406 362L403 359L403 353M638 447L633 446L629 443M641 576L640 567M649 492L652 496L653 501M657 525L655 533M669 597L677 594M699 566L704 560M723 536L726 527M727 494L727 503M735 469L730 477M750 445L744 453M755 430L757 420" name="国界"/>
      <path class="leaflet-interactive" stroke="#201920" stroke-opacity="1" stroke-width="2" stroke-linecap="butt" stroke-linejoin="round" stroke-dasharray="4,4" stroke-dashoffset="4" fill="none" d="M372 301L374 299L372 297L372 289L370 287L367 286L365 288L363 286" name="争议"/>
      <path class="leaflet-interactive" stroke="gray" stroke-opacity="1" stroke-width="1" stroke-linecap="round" stroke-linejoin="round" stroke-dasharray="8,4,4,4" fill="none" d="M683 441L683 441M688 438L686 438L685 441L690 441L690 439L688 438" name="港澳"/>
      <path class="leaflet-interactive" stroke="#4190da" stroke-opacity="1" stroke-width="1" stroke-linecap="round" stroke-linejoin="round" fill="none" d="M687 440L687 438L685 439L684 436L683 441L681 443L680 442L680 444L677 443L675 445L672 444L670 446L660 448L656 451L656 453L659 456L657 458L653 458L651 452L653 448L651 446L649 448L647 448L647 446L638 447M657 450L657 450M657 450L657 452L657 450M683 441L683 441M687 440L687 440M687 440L687 440M687 440L687 440M734 401L731 402L733 402L734 405L731 406L732 409L730 411L734 411L732 413L729 412L729 414L727 414L728 415L727 416L727 414L725 418L724 417L725 418L723 421L720 420L720 422L714 429L710 429L706 435L700 435L698 437L696 435L693 438L691 436L691 438L690 439L690 437L688 439L690 439L687 440M734 401L734 401M749 379L747 383L748 386L745 389L744 388L743 391L742 390L734 403L733 402L735 400L734 401M747 305L745 307L741 307L742 310L741 309L740 312L737 313L737 311L737 313L728 324L738 332L742 342L742 346L747 350L746 351L750 353L750 355L745 353L743 355L745 357M745 357L751 362L750 363L752 365L748 363L743 366L746 367L750 372L752 372L749 374L751 375L750 379M747 305L747 305M747 305L747 305M753 279L750 283L746 285L743 284L748 281L748 279L747 280L744 277L746 277L746 275L753 268L752 265L751 266L749 264L744 263L739 268L739 270L732 273L729 276L729 278L723 282L723 284L720 283L720 281L718 281L716 285L716 289L718 289L718 291L725 292L728 295L729 294L729 296L726 297L726 299L729 302L733 302L733 300L737 297L736 296L740 295L746 297L746 299L752 298L756 300L753 305L747 305M747 305L747 305M749 379L749 379M749 379L749 379M749 379L749 379M750 379L749 379M750 379L750 379M752 371L752 371M752 371L752 371M752 371L752 371M753 371L752 371M752 371L750 369L752 369L753 371M753 371L753 371M753 369L754 368L753 369M753 369L753 369M753 279L753 279M770 271L768 275L762 275L753 279M754 364L754 364M754 364L754 364M756 363L756 363M645 446L645 446M647 451L647 451M650 461L650 461M650 565L651 563L654 564L653 563L650 565M651 476L643 472L643 466L648 461L660 458L663 462L660 465L658 471L652 474L651 476M654 561L655 560L654 561M657 454L657 454M658 450L658 450M658 561L658 561M658 559L659 558L658 559M659 451L659 449L659 451M659 457L659 457M659 559L659 559M659 452L659 452M664 495L664 495M666 485L667 484L666 485M666 555L666 555M666 490L666 490M666 549L666 549M667 563L667 563M667 561L667 561M667 490L667 490M667 489L667 489M667 560L668 561L667 560M667 492L667 492M667 554L668 555L667 554M667 489L667 489M668 562L668 562M668 489L668 489M668 492L669 491L668 492M668 490L669 489L668 490M668 493L668 493M670 559L670 559M670 491L670 491M670 593L670 593M672 553L672 553M672 553L672 553M672 593L672 593M672 487L672 487M672 496L672 496M672 485L673 486L672 485M672 552L673 553L672 552M672 592L672 592M673 552L673 552M673 579L673 579M673 486L673 486M673 487L673 487M674 491L673 492L674 491M674 446L674 446M674 578L674 578M674 494L675 493L674 494M674 490L675 489L674 490M674 547L674 547M674 579L675 578L674 579M674 577L675 578L674 577M675 553L675 553M675 576L675 576M675 583L675 583M675 446L675 446M675 579L675 579M675 581L675 581M675 490L676 491L675 490M675 583L675 583M676 445L675 446L676 445M676 491L676 491M676 488L676 488M677 446L676 445L677 446M677 552L677 552M677 446L677 446M677 487L677 487M677 561L677 561M677 547L677 547M677 547L677 547M678 584L678 584M678 556L678 556M678 464L678 464M678 546L678 546M678 444L678 444M679 443L679 443M679 444L679 444M680 443L680 443M680 573L680 573M680 559L680 559M680 559L681 558L680 559M683 441L683 441M683 541L683 541M683 568L683 568M683 552L684 551L683 552M684 550L684 550M684 443L684 443M684 497L684 497M684 443L684 443M684 443L684 443M684 443L684 443M684 563L685 562L684 563M685 565L685 565M685 439L685 439M685 442L685 442M685 467L685 467M685 441L687 441L685 441M685 543L685 543M685 498L685 498M685 496L686 497L685 496M685 560L686 559L685 560M685 563L690 560L691 561L689 563L685 563M686 552L685 553L686 552M686 495L686 495M686 553L686 553M686 552L687 553L686 552M686 499L686 499M687 543L687 543M687 536L687 536M687 559L687 559M687 494L687 494M687 441L687 441M688 443L688 443M688 548L688 548M688 440L688 440M688 443L688 443M688 553L688 553M688 493L688 493M688 442L688 442M688 498L688 498M688 541L688 541M688 545L688 545M688 441L688 441M688 497L689 498L688 497M689 546L689 546M689 532L689 532M689 438L689 438M689 535L689 535M689 440L689 440M689 542L689 542M689 537L689 537M689 531L689 531M690 493L690 493M690 544L690 544M690 497L690 497M690 545L690 545M690 536L690 536M690 537L690 537M690 544L690 544M690 559L691 558L690 559M691 544L691 544M691 544L691 544M691 532L691 532M691 544L691 544M691 553L692 552L691 553M691 497L691 497M691 544L692 543L691 544M691 532L692 531L691 532M691 439L691 439M692 563L692 563M692 558L692 558M692 540L692 540M692 531L692 531M692 535L693 534L692 535M692 492L692 492M692 545L692 545M693 558L693 558M693 534L693 534M693 495L693 495M693 537L693 537M693 566L693 566M693 560L693 560M694 536L694 536M694 493L694 493M694 564L694 564M694 534L694 534M696 556L697 557L696 556M696 555L697 556L696 555M697 542L697 542M697 511L697 511M698 548L698 548M698 544L698 544M698 556L699 555L698 556M700 539L700 539M700 539L700 539M700 539L700 539M700 540L701 539L700 540M701 539L701 539M701 546L702 545L701 546M701 536L701 536M702 451L702 451M702 450L703 451L702 450M702 549L702 549M703 543L703 543M704 547L704 547M705 552L705 552M706 545L706 545M706 550L706 550M706 545L706 545M706 540L708 540L706 540M707 545L707 545M708 539L708 539M708 491L708 491M708 531L709 532L708 531M708 454L708 454M708 551L708 551M709 453L709 455L709 453M709 539L709 539M712 430L710 430L712 430M712 538L712 538M712 537L712 537M713 541L713 541M713 538L714 537L713 538M713 534L713 534M713 543L713 543M714 535L714 535M716 538L716 538M716 535L716 535M716 501L717 500L716 501M717 537L717 537M719 421L719 421M720 421L719 420L720 421M720 422L721 421L720 422M722 421L721 422L722 421M724 282L724 282M725 281L725 281M725 281L726 282L725 281M730 432L730 432M730 415L731 414L730 415M731 431L731 431M731 428L731 428M731 428L731 428M731 411L731 411M732 406L732 406M732 429L731 430L732 429M732 410L732 410M732 411L732 411M732 402L733 401L732 402M732 413L732 413M732 413L732 413M733 402L733 402M734 411L734 411M734 406L734 406M734 408L734 408M735 430L735 430M735 405L734 406L735 405M735 403L735 403M736 403L736 403M736 402L736 402M736 400L736 400M736 316L736 316M737 399L737 399M737 440L737 440M737 399L737 399M738 296L738 296M739 404L739 404M740 294L739 293L740 294M740 443L736 436L735 429L741 419L746 414L748 414L750 416L750 421L746 433L742 438L742 444L740 443M740 293L740 293M740 294L740 294M741 292L741 292M741 267L741 267M741 290L741 290M742 289L742 289M742 290L742 290M743 309L743 309M743 390L743 390M743 394L743 394M743 390L744 389L743 390M744 390L745 389L744 390M746 354L751 357L750 358L744 354L746 354M746 347L746 347M746 437L746 437M747 442L747 442M748 443L748 443M748 357L748 357M748 379L748 379M749 383L749 383M749 359L747 358L749 359M749 358L751 359L749 358M749 370L749 370M749 382L749 382M749 383L750 382L749 383M750 385L750 385M750 370L749 371L750 370M750 359L750 359M750 385L750 385M750 412L750 412M750 418L750 418M750 370L750 370M750 360L751 359L750 360M750 368L750 368M751 379L751 379M751 373L751 373M751 371L751 371M751 369L751 369M751 365L751 365M751 371L751 371M751 371L751 371M752 371L752 371M752 371L752 371M752 369L752 369M752 368L753 369L752 368M752 369L752 369M752 376L752 376M752 374L751 373L752 374M752 374L752 374M752 371L753 372L752 371M753 372L753 372M753 372L753 372M753 374L752 373L753 374M753 372L754 371L754 373L753 372M754 281L754 281M754 371L754 371M754 367L754 367M755 367L755 367M755 281L755 281M755 280L755 280M755 365L755 365M756 281L757 280L756 281M757 370L757 370M757 283L756 282L757 283M757 364L757 364M757 364L757 364M759 277L758 278L759 277M759 278L759 278M760 283L760 283M761 410L763 410L761 410M763 409L763 409M764 408L765 409L764 408M764 411L764 411M764 410L764 410M764 411L764 411M764 275L764 275M771 408L770 409L771 408" name="海洋"/>
      <path class="leaflet-interactive" stroke="#747569" stroke-opacity="0.6" stroke-width="1" stroke-linecap="round" stroke-linejoin="round" fill="none" d="M491 312L482 309L472 309L464 311L461 316L453 316L446 320L437 319L436 316L432 316L432 318L430 318L428 321L416 319L416 321L414 323L413 322L412 327L410 329L409 328L405 330M555 347L553 347L553 349L550 352L548 352L547 355L544 353L543 356L541 354L538 355L536 353L537 350L536 351L534 349L536 349L534 349L531 346L525 348L520 347L518 345L511 345L506 342L500 342L496 340L490 332L492 332L492 324L490 324L489 321L492 315L488 313L491 312M513 283L506 284L504 286L498 286L497 288L494 289L495 291L497 291L497 296L499 296L504 303L502 303L499 306L499 308L502 309L500 313L494 311L492 313L491 312M588 337L587 338L586 336L584 336L580 332L580 330L581 329L590 332L590 330L592 330L589 327L589 325L593 321L592 320L596 318L595 315L597 315L598 313L596 307L593 304L595 302L589 296L588 297L584 295L575 288L575 290L573 290L565 282L560 283L558 285L553 281L549 281L550 286L547 289L547 291L545 290L543 292L539 289L530 290L528 285L524 286L524 284L519 284L518 281L513 283M545 243L541 246L543 249L541 253L536 255L533 254L525 261L523 265L517 266L515 276L512 280L513 283M608 299L601 295L601 289L605 287L608 282L606 280L607 279L604 278L598 282L594 280L588 282L590 284L588 286L581 283L580 279L570 274L576 266L575 263L567 263L567 265L566 264L563 266L563 264L560 266L560 263L557 261L555 257L556 255L551 242M567 378L565 364L562 359L565 358L561 354L559 348L555 347M588 337L587 342L583 340L584 345L578 347L576 345L575 346L573 342L572 345L565 342L561 332L557 331L555 332L555 334L553 334L553 336L556 339L553 342L554 343L552 343L555 347M559 388L559 386L563 388L563 380L565 382L565 378L567 378M616 392L615 389L611 391L609 389L609 383L605 383L605 386L601 388L602 391L597 396L598 403L595 406L595 404L588 407L588 405L586 405L586 401L580 393L581 392L579 390L577 392L574 389L574 384L571 382L569 384L569 388L567 386L567 378M618 343L617 346L611 346L608 343L609 340L607 336L600 335L597 330L591 334L594 337L589 342L588 337M635 295L632 292L626 290L630 283L628 279L624 280L624 282L623 281L621 285L621 293L619 296L608 299M608 299L610 299L617 306L616 307L618 311L618 316L620 316L620 318L622 318L625 321L625 317L630 314L630 312L626 310L626 304L628 302L632 302M616 392L616 394L612 396L608 396L605 394L603 398L604 403L610 401L611 402L608 411L611 414L613 414L610 419M610 419L610 421L614 421L616 425L621 424L623 426L622 430L621 429L618 432M650 407L649 410L646 409L645 410L647 410L647 412L644 411L643 414L639 412L640 413L636 415L633 414L632 411L622 419L615 416L611 420L610 419M625 385L623 383L619 385L619 387L620 386L624 388L625 390L623 392L616 392M632 302L632 304L639 308L640 307L643 310L643 319L641 321L636 320L636 324L626 322L627 325L625 327L628 330L626 330L627 337L621 337L620 340L622 341L619 344L618 343M642 350L636 350L635 348L633 348L634 347L632 348L630 346L631 345L624 346L622 344L619 345L618 343M648 385L647 388L645 388L641 380L637 380L635 378L633 378L633 382L630 381L628 385L626 385L626 383L625 385M625 385L624 381L620 381L620 379L616 375L620 371L618 369L622 367L624 369L627 368L627 370L630 371L633 368L633 364L638 363L638 359L642 356L640 352L642 350M632 302L632 298L635 295M663 279L663 277L660 280L657 280L655 278L656 279L654 281L653 280L654 281L647 288L647 293L645 293L643 297L635 295M642 350L651 355M651 355L656 360L656 362L650 366L641 366L641 368L643 369L641 373L643 373L646 376L645 377L647 376L648 379M648 379L648 385M686 380L684 380L683 373L679 376L678 373L673 376L669 372L665 372L663 370L659 370L659 374L652 373L652 375L651 374L648 379M650 407L650 405L648 405L650 397L645 398L645 396L647 396L646 395L650 393L648 385M670 419L669 418L666 420L666 416L662 416L666 409L664 409L663 404L659 404L656 408L654 406L652 408L650 407M662 340L660 342L658 340L650 340L652 344L653 343L656 346L652 346L650 348L651 355M652 447L652 448M652 447L656 443L657 444L657 442L660 441L660 439L663 436L665 436L665 430L671 422L670 419M653 459L654 459M655 459L657 458M657 327L656 324L659 317L657 303L661 297L658 294L658 292L661 289L662 284L664 282L663 279M657 327L662 340M657 327L667 325L670 322L671 323L671 321L677 321L683 317L684 310M658 458L659 457M697 358L695 356L692 357L691 354L686 355L684 351L685 350L683 348L681 350L679 348L672 349L668 347L662 340M662 341L662 341M687 265L687 267L677 269L677 271L674 269L669 277L666 276L666 278L663 279M670 419L672 415L676 415L676 417L678 417L679 414L677 414L679 412L683 414L686 412M698 312L695 311L694 313L684 310M684 310L682 306L684 306L684 304L685 305L684 302L687 299L687 295L685 291L683 291L683 287L685 285L684 283L689 282L691 278L690 275L686 273L686 271L687 272L687 270L690 269L687 265M704 373L702 374L698 372L698 374L696 374L693 377L689 377L686 380M686 412L686 408L688 406L686 406L687 403L685 401L685 396L683 394L683 392L688 387L688 383L686 380M686 412L686 414L692 414L692 416L690 416L688 420L690 421L697 418L701 420L700 419L702 417M728 259L721 258L721 250L720 251L718 249L719 248L717 244L711 246L707 252L706 251L703 254L701 252L697 254L697 256L693 256L694 252L690 250L688 256L685 257L687 265M704 327L704 329L707 330L708 333L705 336L701 332L699 334L700 337L698 337L697 340L693 342L696 345L696 347L702 347L702 353L699 354L697 358M704 373L701 367L701 363L703 361L697 358M718 290L713 295L709 295L706 298L705 297L704 300L702 300L702 302L697 307L698 312M704 327L698 327L698 325L696 325L696 323L695 324L693 322L701 314L703 314L703 312L697 316L698 312M702 417L701 414L708 403L707 400L711 398L712 395L710 393L713 392L713 390L716 391L722 387M712 429L709 420L707 420L705 418L706 417L702 417M720 377L720 375L716 375L713 372L711 372L712 373L709 375L708 374L710 372L708 370L704 373M705 327L704 327M729 323L725 323L725 325L722 326L721 329L718 326L716 328L713 327L713 329L709 323L706 324L705 327M732 360L731 361L729 359L725 359L724 358L726 356L724 356L724 354L723 355L721 353L723 351L722 350L724 350L723 347L727 347L728 344L725 343L725 345L721 345L721 343L718 340L720 336L716 336L717 335L714 332L705 327M714 270L712 268L715 265L711 265L707 261L705 263L706 264L700 267L702 269L698 273L698 275L701 278L705 278L707 276L709 277M716 287L713 288L708 285L710 281L709 277M710 276L709 277M710 276L712 276L712 272M712 272L709 273L710 276M712 429L713 430M714 270L712 272M713 431L714 431M714 270L717 273L715 273L715 275L719 281M720 377L726 371L725 370L730 367L728 365L731 364L732 360M720 377L719 380L722 383L722 387M738 397L737 394L733 396L731 392L728 395L725 394L725 387L722 387M728 259L730 257L730 247L735 252L735 254L741 248L742 249L745 246L749 246L751 243L759 243L762 240L764 240L764 236M733 273L733 270L730 267L728 267L728 265L725 264L728 259M742 361L739 364L732 360M740 398L741 398M741 289L743 289M750 356L745 353L744 359L742 361M745 365L742 361M746 365L747 365M762 195L762 197L761 196L759 198L754 191L755 188L769 176L771 182L773 170L777 168L776 160L783 145L777 137L774 139L774 141L759 142L756 133L757 130L753 126L750 129L748 129L748 127L745 125L749 119L747 115M747 365L748 364M749 364L750 364M751 363L752 363M754 363L755 363M756 362L757 362M826 235L821 235L817 229L815 231L815 229L812 231L811 230L809 234L807 234L803 228L802 223L799 226L800 227L797 228L794 222L791 223L792 218L790 216L782 216L780 212L771 213L767 209L767 203L760 204M760 204L759 200L764 198L764 196L763 197L762 195M760 204L757 206L757 210L754 207L751 208L749 206L748 209L751 211L753 215L751 218L753 226L758 225L760 223L763 232L763 234L761 234L764 236M762 195L762 195M762 195L762 195M762 195L762 195M764 236L765 235L770 240L770 242L773 239L774 240L776 248L778 250L779 249L777 251L777 255L779 255L778 256L781 259L779 263L781 263M621 319L622 318L621 319M650 401L651 400L650 401M678 373L678 373" name="省界"/>
      <path class="leaflet-interactive" stroke="#8B908F" stroke-opacity="0.5" stroke-width="1" stroke-linecap="butt" stroke-linejoin="bevel" fill="#eee" fill-opacity="0.5" fill-rule="evenodd" d="M713 266L715 266L710 265L708 261L703 266L700 267L702 269L701 271L698 272L698 275L701 278L705 278L707 276L708 277L710 275L709 272L714 271L712 269L713 266z" name="北京市"/>
      <path class="leaflet-interactive" stroke="#8B908F" stroke-opacity="0.5" stroke-width="1" stroke-linecap="butt" stroke-linejoin="bevel" fill="#eee" fill-opacity="0.5" fill-rule="evenodd" d="M717 279L718 278L715 275L715 273L717 273L714 270L712 272L712 276L709 277L710 281L708 285L716 287L718 283L717 282L719 280L716 279zM717 279L717 279z" name="天津市"/>
      <path class="leaflet-interactive" stroke="#8B908F" stroke-opacity="0.5" stroke-width="1" stroke-linecap="butt" stroke-linejoin="bevel" fill="#eee" fill-opacity="0.5" fill-rule="evenodd" d="M714 266L712 268L717 273L715 273L715 275L722 284L729 278L729 275L733 273L731 267L729 267L726 264L726 262L729 259L721 258L721 250L720 251L718 249L719 248L717 244L711 246L708 252L702 252L697 254L697 256L694 255L694 252L692 250L690 250L688 256L685 257L685 261L689 269L691 269L686 272L690 274L690 280L686 282L683 287L683 291L686 293L687 296L684 302L685 303L682 307L685 310L694 313L696 311L697 312L697 308L701 304L702 300L705 298L706 299L709 295L713 295L718 290L715 287L711 287L708 285L710 281L708 276L706 278L700 278L698 276L698 273L702 269L700 267L703 266L708 261L710 265L714 266zM712 272L709 273L710 276L712 276L712 272zM717 279L716 279zM725 281L725 282z" name="河北省"/>
      <path class="leaflet-interactive" stroke="#8B908F" stroke-opacity="0.5" stroke-width="1" stroke-linecap="butt" stroke-linejoin="bevel" fill="#eee" fill-opacity="0.5" fill-rule="evenodd" d="M657 327L667 325L670 322L671 323L671 321L677 321L683 317L684 310L682 306L685 304L684 303L687 298L686 293L683 290L685 286L684 283L689 282L691 278L690 275L686 272L691 269L689 269L688 265L683 269L680 268L677 269L676 271L674 269L669 277L667 276L664 279L661 289L658 292L658 294L661 297L657 303L659 315L656 324L657 327z" name="山西省"/>
      <path class="leaflet-interactive" stroke="#8B908F" stroke-opacity="0.5" stroke-width="1" stroke-linecap="butt" stroke-linejoin="bevel" fill="#eee" fill-opacity="0.5" fill-rule="evenodd" d="M551 242L556 255L554 257L560 263L560 266L564 266L566 264L567 265L567 263L574 263L576 266L575 270L570 274L580 279L580 283L583 283L586 286L588 286L590 284L588 282L593 280L597 282L601 279L606 278L608 282L605 287L601 289L601 295L609 299L618 296L621 293L621 285L623 281L624 282L624 280L627 279L630 282L630 284L626 290L629 292L633 292L633 294L638 295L638 297L643 297L644 294L647 293L646 290L654 281L653 280L654 281L656 279L655 278L657 280L659 280L662 277L664 279L667 276L668 277L674 269L676 271L680 268L683 269L687 267L685 257L688 256L690 250L692 250L694 252L693 255L696 256L701 252L703 254L706 251L707 252L710 250L710 246L714 246L717 244L719 248L718 249L720 251L721 250L721 258L728 259L730 257L730 251L728 249L730 247L735 252L735 254L741 248L742 249L745 246L749 246L755 242L758 243L764 239L764 237L761 234L763 234L763 232L760 223L753 227L751 220L753 216L748 209L749 206L751 208L754 207L757 210L757 206L760 204L759 200L764 198L763 195L761 195L762 196L760 198L758 197L758 195L754 191L755 188L763 183L769 176L771 182L773 170L777 168L776 160L783 145L777 137L774 139L774 141L759 141L756 134L757 129L755 129L752 126L749 129L745 125L749 119L748 116L743 115L735 123L735 125L740 125L741 132L734 139L735 140L730 147L731 148L728 154L730 154L729 157L716 164L708 160L701 176L701 180L699 181L699 184L702 187L705 184L714 187L718 182L723 183L733 193L734 198L732 200L727 199L725 197L717 200L715 199L713 202L709 202L704 208L705 209L700 213L692 213L687 219L683 221L677 220L674 217L669 217L666 225L670 233L662 237L657 243L645 247L634 246L625 249L614 256L611 255L610 253L599 252L595 249L593 250L586 245L565 245L552 243z" name="内蒙古自治区"/>
      <path class="leaflet-interactive" stroke="#8B908F" stroke-opacity="0.5" stroke-width="1" stroke-linecap="butt" stroke-linejoin="bevel" fill="#eee" fill-opacity="0.5" fill-rule="evenodd" d="M763 275L767 275L774 267L775 268L781 263L781 259L778 256L779 255L777 255L777 251L779 249L778 250L776 248L776 244L773 239L770 242L770 239L765 235L763 240L760 241L761 242L754 242L754 244L752 243L749 246L745 246L735 254L735 252L730 247L728 249L730 251L730 256L726 261L726 264L729 267L731 267L733 273L739 270L739 268L744 263L749 263L753 267L750 270L751 271L746 275L747 276L744 278L748 280L748 282L747 281L747 283L746 282L744 286L749 283L750 284L749 283L755 278L763 275zM756 280L756 280zM753 281L753 281zM756 280L757 281L756 280zM757 283L756 282L757 283zM759 277L758 278L759 277zM755 280L755 281zM741 267L741 267zM759 278L759 278zM760 283L760 283zM764 275L765 275z" name="辽宁省"/>
      <path class="leaflet-interactive" stroke="#8B908F" stroke-opacity="0.5" stroke-width="1" stroke-linecap="butt" stroke-linejoin="bevel" fill="#eee" fill-opacity="0.5" fill-rule="evenodd" d="M812 247L814 240L816 240L820 246L820 244L818 243L822 242L825 239L826 236L818 233L818 229L816 231L814 229L810 231L809 234L807 234L803 228L802 223L799 226L800 227L797 228L794 222L791 223L792 218L790 216L782 216L780 212L776 214L774 212L771 213L767 209L767 205L765 203L761 203L757 206L757 210L754 207L751 208L749 206L748 209L751 211L753 216L751 218L753 226L755 227L760 223L763 232L763 234L761 234L763 236L765 235L768 238L769 237L769 240L771 242L773 239L774 240L776 248L778 250L779 249L777 251L777 255L779 255L778 256L781 259L781 263L784 262L790 253L794 257L801 258L799 251L807 251L810 246L812 247z" name="吉林省"/>
      <path class="leaflet-interactive" stroke="#8B908F" stroke-opacity="0.5" stroke-width="1" stroke-linecap="butt" stroke-linejoin="bevel" fill="#eee" fill-opacity="0.5" fill-rule="evenodd" d="M763 204L767 204L767 208L771 213L774 212L776 214L780 212L782 216L790 216L792 218L791 223L794 222L798 228L800 228L799 225L802 223L803 228L807 234L809 234L809 232L814 229L816 231L818 229L818 233L824 236L825 229L823 220L830 215L839 218L840 217L840 213L847 202L846 201L849 193L848 192L853 187L853 179L856 177L840 181L837 184L836 183L837 184L835 186L824 187L820 182L822 180L819 175L821 172L817 172L810 165L807 166L804 163L798 164L796 162L796 155L794 155L793 148L790 145L791 142L789 142L790 139L788 138L789 137L786 133L787 132L783 124L784 123L780 121L781 120L779 118L773 118L763 112L748 114L747 115L749 119L744 125L747 126L748 129L750 129L753 126L757 130L756 133L759 142L774 141L776 137L783 144L781 152L776 159L777 167L773 169L771 182L769 176L758 187L755 188L754 191L759 198L761 196L762 197L762 195L763 197L764 196L764 198L759 199L760 203L763 204z" name="黑龙江省"/>
      <path class="leaflet-interactive" stroke="#8B908F" stroke-opacity="0.5" stroke-width="1" stroke-linecap="butt" stroke-linejoin="bevel" fill="#eee" fill-opacity="0.5" fill-rule="evenodd" d="M742 361L746 365L751 362L746 357L744 357L742 361zM750 356L745 353L744 354L747 357L751 357zM749 359L747 357L749 359zM749 358L752 359L749 358zM748 357L747 357zM750 360L750 359zM750 359L750 359z" name="上海市"/>
      <path class="leaflet-interactive" stroke="#8B908F" stroke-opacity="0.5" stroke-width="1" stroke-linecap="butt" stroke-linejoin="bevel" fill="#eee" fill-opacity="0.5" fill-rule="evenodd" d="M713 328L712 329L709 324L705 326L712 332L715 332L717 336L719 336L718 341L720 341L722 345L726 343L728 345L727 348L723 346L724 349L721 353L723 355L724 354L724 356L726 356L724 359L730 359L729 360L733 360L739 364L746 356L744 355L745 353L750 356L750 353L742 345L738 332L730 326L728 322L725 323L722 329L720 329L718 326L716 328L713 328z" name="江苏省"/>
      <path class="leaflet-interactive" stroke="#8B908F" stroke-opacity="0.5" stroke-width="1" stroke-linecap="butt" stroke-linejoin="bevel" fill="#eee" fill-opacity="0.5" fill-rule="evenodd" d="M722 387L725 388L725 394L728 395L732 392L733 395L737 394L739 397L740 393L744 391L743 388L744 389L748 387L748 379L751 378L749 374L752 372L748 371L743 366L745 364L742 361L739 364L733 360L731 364L728 365L730 367L727 368L725 370L726 371L719 378L719 380L722 383L722 386zM752 371L753 372L753 370L751 369L752 371zM752 369L752 370zM753 374L753 374zM754 364L754 364zM752 368L753 369L752 368zM753 369L753 368zM751 379L751 378zM754 372L754 372zM754 367L754 367zM749 382L750 382zM753 372L753 373zM749 379L749 379zM744 393L744 393zM750 364L751 365L750 364zM750 385L750 385zM752 374L751 373L752 374zM754 371L754 372zM755 365L755 365zM750 385L750 385zM751 369L751 369zM754 371L754 371zM749 371L750 370L749 371zM743 394L743 394zM750 378L751 379L750 378zM751 373L751 374zM750 370L750 370zM750 368L750 368zM752 371L752 371zM753 374L753 373zM744 391L744 391zM757 370L757 370zM753 368L753 368zM753 372L753 372zM757 364L757 364zM743 390L744 389L743 390zM744 390L745 389L744 390zM754 371L754 371zM757 364L757 364zM752 371L753 371zM751 371L751 371zM743 390L743 389zM754 372L754 372zM752 371L752 371z" name="浙江省"/>
      <path class="leaflet-interactive" stroke="#8B908F" stroke-opacity="0.5" stroke-width="1" stroke-linecap="butt" stroke-linejoin="bevel" fill="#eee" fill-opacity="0.5" fill-rule="evenodd" d="M707 333L708 334L704 336L700 332L700 337L698 337L697 340L693 342L696 345L696 347L702 347L702 354L700 354L697 357L701 361L703 361L700 365L704 373L707 372L707 370L710 372L708 374L709 375L712 372L714 372L715 375L722 376L726 371L725 370L730 367L728 365L730 365L732 361L729 360L730 359L724 359L726 357L722 353L724 349L723 346L727 348L728 345L726 343L722 345L720 341L718 341L720 336L716 336L717 334L715 332L711 332L706 327L704 328L705 330L707 330L707 333zM725 357L726 357zM708 374L708 374zM698 348L698 348z" name="安徽省"/>
      <path class="leaflet-interactive" stroke="#8B908F" stroke-opacity="0.5" stroke-width="1" stroke-linecap="butt" stroke-linejoin="bevel" fill="#eee" fill-opacity="0.5" fill-rule="evenodd" d="M727 417L726 414L728 416L727 415L730 414L728 414L728 412L734 412L730 410L732 410L732 406L734 404L732 402L734 402L734 400L735 401L733 403L736 402L735 401L738 398L738 396L733 396L731 392L729 395L726 394L724 386L721 387L721 389L717 391L714 390L711 393L712 395L707 400L708 403L706 407L703 409L701 417L705 417L707 419L706 420L709 419L710 426L713 429L720 423L719 420L723 421L725 419L724 418L727 417zM722 421L721 422L722 421zM730 415L731 414L730 415zM731 411L731 411zM734 406L734 405zM720 422L720 421zM734 401L734 401zM720 421L719 420L720 421zM734 406L734 406zM732 406L731 406zM735 403L735 403zM732 411L732 410zM733 402L733 402zM736 402L736 402zM737 399L737 399zM736 400L736 400zM732 402L733 401L732 402z" name="福建省"/>
      <path class="leaflet-interactive" stroke="#8B908F" stroke-opacity="0.5" stroke-width="1" stroke-linecap="butt" stroke-linejoin="bevel" fill="#eee" fill-opacity="0.5" fill-rule="evenodd" d="M720 377L719 375L715 375L714 372L712 372L709 375L708 374L710 372L708 370L702 374L698 372L698 374L696 374L693 377L689 377L686 380L688 382L688 387L684 391L683 395L685 395L684 398L687 403L686 405L688 405L686 413L692 414L688 419L690 421L697 418L700 420L701 419L703 410L708 403L707 400L712 396L711 393L714 390L717 391L722 388L722 384L719 380L720 377z" name="江西省"/>
      <path class="leaflet-interactive" stroke="#8B908F" stroke-opacity="0.5" stroke-width="1" stroke-linecap="butt" stroke-linejoin="bevel" fill="#eee" fill-opacity="0.5" fill-rule="evenodd" d="M705 327L706 324L709 323L712 328L716 328L718 326L721 329L723 326L725 326L724 325L726 323L730 322L730 320L737 313L737 311L737 313L740 312L741 309L742 310L741 307L742 308L750 304L753 305L756 299L746 299L746 297L740 295L736 296L737 297L733 300L733 302L729 302L726 298L729 297L729 295L726 292L723 293L718 290L713 295L709 295L706 298L705 297L705 299L704 298L705 299L702 300L702 302L697 307L697 316L703 312L703 314L701 314L693 322L700 328L705 327zM740 294L741 294zM740 293L740 293zM743 309L742 309zM741 292L741 291zM742 290L742 289zM736 316L736 315zM740 294L739 293zM741 290L741 290zM747 297L747 297zM747 297L747 297zM747 297L747 297zM698 314L698 314z" name="山东省"/>
      <path class="leaflet-interactive" stroke="#8B908F" stroke-opacity="0.5" stroke-width="1" stroke-linecap="butt" stroke-linejoin="bevel" fill="#eee" fill-opacity="0.5" fill-rule="evenodd" d="M676 349L679 348L682 350L684 348L686 355L691 355L692 357L695 356L697 358L698 355L702 354L702 348L698 348L696 344L693 343L697 341L700 332L704 336L708 334L704 327L698 327L698 325L696 325L695 323L694 324L693 321L703 313L698 314L697 316L698 313L696 311L694 313L685 310L683 317L678 321L671 320L670 323L657 328L664 344L671 349L675 349zM684 349L684 350z" name="河南省"/>
      <path class="leaflet-interactive" stroke="#8B908F" stroke-opacity="0.5" stroke-width="1" stroke-linecap="butt" stroke-linejoin="bevel" fill="#eee" fill-opacity="0.5" fill-rule="evenodd" d="M663 341L650 341L653 344L655 344L654 347L651 346L650 350L651 355L655 358L656 362L649 366L641 366L643 369L641 373L643 373L646 376L645 377L647 376L648 379L649 376L651 374L652 375L652 373L659 374L659 370L669 372L672 375L676 375L678 373L679 376L683 372L683 378L685 380L688 377L694 377L693 376L699 372L702 374L703 373L703 369L701 367L701 363L703 361L699 360L695 356L692 357L691 354L686 355L684 349L671 349L668 346L667 347L663 341zM647 366L647 366zM663 341L663 341zM676 349L676 349zM677 373L678 373z" name="湖北省"/>
      <path class="leaflet-interactive" stroke="#8B908F" stroke-opacity="0.5" stroke-width="1" stroke-linecap="butt" stroke-linejoin="bevel" fill="#eee" fill-opacity="0.5" fill-rule="evenodd" d="M670 419L672 415L676 415L676 417L678 417L677 414L679 412L683 414L686 411L686 407L688 406L686 406L687 403L685 401L685 395L683 395L683 393L684 390L687 389L686 388L688 386L688 382L685 379L684 380L683 373L679 376L678 373L676 375L672 375L669 372L658 370L658 374L650 374L648 378L648 389L650 393L648 395L647 394L647 396L644 398L649 397L651 399L651 401L649 401L648 404L653 409L653 406L657 408L659 405L665 405L664 408L666 408L662 417L666 415L666 419L670 418zM650 401L650 401z" name="湖南省"/>
      <path class="leaflet-interactive" stroke="#8B908F" stroke-opacity="0.5" stroke-width="1" stroke-linecap="butt" stroke-linejoin="bevel" fill="#eee" fill-opacity="0.5" fill-rule="evenodd" d="M683 441L684 437L690 439L691 436L693 438L696 435L698 437L700 435L706 435L709 432L709 430L712 429L709 419L706 420L707 419L705 417L701 417L701 420L699 420L698 418L690 421L688 419L692 415L691 413L686 414L686 412L680 412L678 414L677 413L679 415L677 417L675 415L671 416L672 417L670 419L670 425L665 430L666 433L663 437L660 438L659 441L657 441L656 444L655 443L653 446L652 445L653 448L651 452L653 458L657 458L659 456L656 453L658 449L670 446L672 444L680 444L683 441zM711 430L711 430zM677 445L676 446L677 445zM674 446L675 446zM688 442L688 442zM658 450L659 451L659 449L658 450zM674 446L674 445zM658 451L656 451L659 451zM684 443L684 443zM684 443L684 443zM679 444L679 444zM685 439L685 439zM688 443L688 443zM688 443L687 443zM709 453L710 454L708 455L710 455L709 453zM678 444L678 444zM657 454L657 454zM659 452L659 452zM659 457L659 457zM702 450L703 451L702 450zM702 451L702 451zM701 436L701 436zM701 436L701 436z" name="广东省"/>
      <path class="leaflet-interactive" stroke="#8B908F" stroke-opacity="0.5" stroke-width="1" stroke-linecap="butt" stroke-linejoin="bevel" fill="#eee" fill-opacity="0.5" fill-rule="evenodd" d="M650 407L649 410L646 409L645 410L647 410L645 412L644 411L643 414L642 412L640 412L639 415L637 415L631 411L629 415L622 419L615 416L612 420L610 420L617 425L622 424L624 426L623 429L621 429L618 432L621 435L626 434L628 436L626 440L628 441L627 443L638 447L643 445L646 446L646 448L648 448L651 446L652 447L652 445L653 446L656 443L657 444L657 442L660 441L660 439L666 434L666 428L670 426L669 424L671 422L669 418L666 420L665 415L663 417L662 416L666 409L664 409L664 405L659 405L656 408L654 406L653 409L650 407zM615 417L615 417zM647 451L647 451z" name="广西壮族自治区"/>
      <path class="leaflet-interactive" stroke="#8B908F" stroke-opacity="0.5" stroke-width="1" stroke-linecap="butt" stroke-linejoin="bevel" fill="#eee" fill-opacity="0.5" fill-rule="evenodd" d="M655 460L648 461L643 466L643 472L645 474L651 476L659 470L659 467L663 463L660 459L655 459zM672 593L672 593zM680 559L681 558zM670 593L670 593zM666 485L667 484L666 485zM716 501L716 500zM672 592L672 592zM668 492L669 492zM667 492L668 492zM685 563L689 563L691 561L690 560L686 563zM686 552L687 553L686 552zM686 553L686 553zM670 491L670 491zM668 490L669 489L668 490zM672 553L672 553zM685 565L685 565zM688 553L688 553zM672 485L673 486L672 485zM692 540L692 540zM701 546L701 545zM691 544L692 543zM684 563L685 562zM650 565L652 563L654 564L650 564zM705 552L705 552zM674 494L675 493L674 494zM675 553L675 553zM690 536L691 536zM674 491L674 491zM706 540L707 540zM673 486L673 486zM666 490L667 490zM698 544L699 544zM692 558L692 558zM690 559L691 558zM696 556L697 557L696 556zM685 560L686 559zM698 548L698 548zM706 550L706 550zM683 552L684 551L683 552zM692 535L693 534L692 535zM691 532L691 531zM694 536L694 536zM667 490L667 490zM686 552L686 553zM654 561L654 560zM708 531L709 532L708 531zM668 489L668 489zM674 490L675 489L674 490zM668 493L669 493zM685 543L685 542zM693 558L693 558zM707 545L707 546zM697 542L697 542zM709 539L709 539zM692 492L692 492zM702 549L702 549zM684 550L684 550zM692 563L692 563zM690 537L691 537zM717 537L717 537zM688 541L688 541zM692 531L692 531zM708 539L708 539zM658 559L659 558L658 559zM666 555L666 555zM696 555L697 555zM680 559L680 559zM687 536L687 536zM713 541L713 540zM688 493L688 493zM659 559L659 559zM698 556L699 555zM667 563L667 563zM667 554L668 554zM658 561L658 561zM673 552L673 552zM706 545L706 545zM670 559L670 559zM690 497L690 497zM694 534L695 534zM687 494L687 494zM703 543L703 542zM713 538L713 537zM693 566L693 566zM677 552L677 552zM668 562L668 562zM672 553L672 553zM674 577L675 577zM691 553L691 552zM693 560L693 559zM678 556L678 556zM683 568L683 568zM708 491L708 491zM713 543L713 542zM678 464L678 464zM690 493L690 493zM685 467L685 467zM675 583L676 583zM667 560L667 560zM672 552L673 552zM677 561L678 561zM675 579L675 579zM674 579L674 578zM697 511L697 511zM683 541L683 541zM685 498L685 498zM678 584L678 584zM675 583L675 583zM673 579L673 579zM672 487L672 487zM672 496L672 496zM675 581L675 581zM674 578L674 578zM680 573L680 573zM704 547L704 547zM694 564L694 563zM667 561L667 561zM686 495L686 495zM694 493L694 494zM708 551L708 551zM675 490L676 490zM664 461L664 461zM700 540L701 540zM712 537L712 538zM676 491L676 491zM701 539L701 539zM674 547L675 547zM691 497L691 497zM713 534L713 535zM716 535L716 535zM688 548L688 548zM692 545L692 546zM675 576L675 576z" name="海南省"/>
      <path class="leaflet-interactive" stroke="#8B908F" stroke-opacity="0.5" stroke-width="1" stroke-linecap="butt" stroke-linejoin="bevel" fill="#eee" fill-opacity="0.5" fill-rule="evenodd" d="M625 385L626 382L627 385L631 381L632 382L634 378L636 378L637 381L641 379L641 383L643 383L643 385L646 388L649 384L649 380L647 376L645 376L645 374L641 373L643 369L641 367L643 367L644 365L647 366L655 363L656 360L654 357L652 355L648 355L646 352L642 350L642 352L640 352L642 356L638 360L639 359L637 364L633 364L634 365L630 371L628 371L627 368L624 369L620 367L620 369L618 369L620 371L617 377L620 378L620 380L622 380L625 384zM647 365L647 366zM619 370L619 370zM647 366L647 366zM630 371L630 371z" name="重庆市"/>
      <path class="leaflet-interactive" stroke="#8B908F" stroke-opacity="0.5" stroke-width="1" stroke-linecap="butt" stroke-linejoin="bevel" fill="#eee" fill-opacity="0.5" fill-rule="evenodd" d="M583 397L588 407L597 404L597 396L602 391L602 387L603 388L605 386L604 385L608 383L608 387L610 387L608 389L610 391L616 389L617 392L624 392L624 388L620 386L619 387L619 385L622 382L625 385L624 381L620 381L620 379L616 375L620 372L619 369L618 370L621 367L624 369L627 368L627 370L630 371L634 364L638 363L638 359L642 356L640 352L642 352L642 350L638 350L635 348L634 349L634 347L631 348L630 345L623 346L623 344L621 344L619 346L618 343L617 346L611 346L608 343L609 340L607 336L600 335L597 330L592 333L594 337L589 342L588 337L587 342L583 340L584 345L578 347L576 345L575 346L573 342L572 345L565 342L561 332L555 332L553 336L556 339L553 341L554 342L552 344L560 350L564 358L562 360L565 364L567 385L569 388L569 384L571 382L575 386L574 389L577 392L579 390L583 397zM624 369L624 369zM630 370L630 370zM618 369L618 369z" name="四川省"/>
      <path class="leaflet-interactive" stroke="#8B908F" stroke-opacity="0.5" stroke-width="1" stroke-linecap="butt" stroke-linejoin="bevel" fill="#eee" fill-opacity="0.5" fill-rule="evenodd" d="M648 385L647 388L645 388L644 385L643 386L643 384L641 383L641 379L637 381L637 379L634 378L633 381L631 381L627 385L626 382L625 385L622 382L619 385L619 387L620 386L624 388L624 391L618 391L615 395L612 396L609 394L607 396L605 394L603 398L604 403L611 402L608 411L611 414L613 414L610 418L612 420L616 416L622 420L624 418L623 417L629 415L631 411L633 412L633 414L638 415L640 413L639 412L643 413L643 411L645 412L647 410L645 410L646 409L649 410L650 405L648 405L648 401L650 401L650 397L645 398L647 396L646 395L650 393L648 385zM650 400L650 400zM650 401L651 401z" name="贵州省"/>
      <path class="leaflet-interactive" stroke="#8B908F" stroke-opacity="0.5" stroke-width="1" stroke-linecap="butt" stroke-linejoin="bevel" fill="#eee" fill-opacity="0.5" fill-rule="evenodd" d="M616 392L614 388L613 390L610 391L608 389L610 387L608 387L609 384L605 384L605 386L603 388L602 387L601 392L597 396L598 403L595 406L595 404L589 407L582 397L580 393L581 392L579 390L577 392L574 389L575 386L571 382L569 384L569 388L567 386L567 378L565 378L565 382L563 380L562 383L564 386L562 388L560 386L559 387L560 394L563 393L564 396L564 406L562 406L563 408L555 416L556 417L554 421L556 423L554 425L555 426L559 424L565 424L563 426L565 429L564 430L566 433L570 433L567 441L572 442L576 447L580 447L582 445L584 447L583 448L587 450L588 445L586 440L588 438L591 439L594 436L598 439L601 436L605 438L608 435L609 437L613 435L612 434L615 431L618 432L621 429L623 429L624 426L622 424L617 425L614 421L610 421L612 416L612 414L609 411L611 402L609 401L605 403L603 400L605 394L607 396L609 394L613 396L616 393z" name="云南省"/>
      <path class="leaflet-interactive" stroke="#8B908F" stroke-opacity="0.5" stroke-width="1" stroke-linecap="butt" stroke-linejoin="bevel" fill="#eee" fill-opacity="0.5" fill-rule="evenodd" d="M491 312L482 309L472 309L464 311L461 316L460 315L458 317L455 315L446 320L437 319L436 316L432 316L432 318L430 318L428 321L416 319L416 321L414 323L413 322L412 327L410 329L406 329L402 333L402 337L407 344L406 349L404 349L403 346L400 347L400 351L403 353L403 359L406 362L409 361L414 366L415 365L419 367L423 371L425 367L430 368L442 379L444 377L447 378L446 379L451 384L454 383L456 387L459 386L461 390L463 388L463 390L467 388L470 391L478 391L480 389L484 389L483 394L485 396L492 387L500 389L502 391L504 389L506 393L510 395L511 400L522 399L528 393L533 392L536 390L536 388L539 387L543 387L550 391L553 389L552 388L554 384L559 388L559 386L563 388L563 380L565 382L565 378L567 378L565 369L566 368L564 361L562 359L565 358L561 354L559 348L552 347L553 350L552 349L551 352L547 352L548 355L544 353L543 356L541 354L538 355L536 353L537 350L534 350L535 349L530 346L522 348L517 345L511 345L506 342L500 342L496 340L490 333L492 331L492 324L490 324L489 321L492 315L488 313L491 312z" name="西藏自治区"/>
      <path class="leaflet-interactive" stroke="#8B908F" stroke-opacity="0.5" stroke-width="1" stroke-linecap="butt" stroke-linejoin="bevel" fill="#eee" fill-opacity="0.5" fill-rule="evenodd" d="M657 327L656 324L659 317L657 303L661 297L658 291L662 287L662 283L664 280L663 277L659 280L655 278L656 279L654 281L653 280L654 281L647 288L647 293L645 293L643 297L639 297L636 294L632 298L632 304L639 308L640 307L643 310L643 320L636 320L636 324L626 322L627 325L625 327L628 330L626 330L627 332L625 334L627 337L621 337L620 340L622 341L620 344L618 344L622 344L624 346L630 345L631 348L634 347L634 349L635 348L638 351L641 350L651 355L650 348L652 346L656 346L653 343L652 344L652 342L650 341L659 340L660 342L662 340L657 327zM662 338L662 338zM623 345L623 345z" name="陕西省"/>
      <path class="leaflet-interactive" stroke="#8B908F" stroke-opacity="0.5" stroke-width="1" stroke-linecap="butt" stroke-linejoin="bevel" fill="#eee" fill-opacity="0.5" fill-rule="evenodd" d="M626 316L625 321L621 319L622 318L620 318L617 315L617 305L610 299L605 298L603 295L601 295L601 289L605 287L608 282L606 278L601 279L598 282L593 280L590 281L590 284L588 286L581 283L580 279L578 279L572 274L569 274L574 270L576 266L575 263L567 263L567 265L566 264L563 266L563 264L560 266L560 263L557 261L555 257L555 251L551 242L543 244L541 246L543 249L542 252L536 255L533 254L525 261L523 265L517 266L515 276L512 280L513 283L515 281L519 281L519 284L523 284L525 286L528 285L530 289L539 289L543 292L545 290L547 291L547 289L550 286L550 281L559 285L560 282L562 284L564 282L567 283L566 284L573 290L575 291L575 288L578 291L579 290L583 295L591 297L598 313L589 325L589 327L592 330L588 332L581 329L580 330L583 336L588 338L589 337L589 341L592 340L591 339L593 339L594 337L591 333L593 333L596 330L599 332L600 335L607 336L609 340L608 343L611 346L617 346L618 343L621 343L621 337L627 337L626 330L628 330L625 327L627 325L626 322L635 324L637 323L635 321L636 320L642 321L642 315L644 313L643 309L634 305L631 302L627 302L627 306L625 308L626 311L630 313L629 316L627 316zM622 318L623 318zM596 310L597 310zM623 319L623 319zM626 316L626 316z" name="甘肃省"/>
      <path class="leaflet-interactive" stroke="#8B908F" stroke-opacity="0.5" stroke-width="1" stroke-linecap="butt" stroke-linejoin="bevel" fill="#eee" fill-opacity="0.5" fill-rule="evenodd" d="M596 310L596 306L590 296L589 297L587 295L583 295L581 291L580 292L575 288L575 290L573 290L565 282L563 282L562 284L560 282L558 285L553 281L549 281L550 286L547 289L547 291L545 290L543 292L539 289L530 290L528 285L525 286L523 284L519 284L519 282L516 281L504 286L499 286L494 289L495 291L498 290L497 296L504 302L499 305L499 307L502 308L502 311L500 313L494 311L492 313L488 313L492 315L489 320L489 322L492 325L492 331L490 333L496 340L500 342L503 341L511 345L520 346L522 348L530 346L537 351L536 353L538 355L541 354L543 356L544 353L548 355L547 352L548 353L551 352L552 349L553 350L552 347L554 347L553 342L555 339L553 335L556 331L561 333L564 340L568 344L571 345L573 343L575 345L574 346L577 345L579 347L584 345L583 340L586 340L587 342L588 338L584 336L580 331L582 329L587 332L592 330L589 327L589 325L593 321L592 320L596 318L595 316L598 313L597 310z" name="青海省"/>
      <path class="leaflet-interactive" stroke="#8B908F" stroke-opacity="0.5" stroke-width="1" stroke-linecap="butt" stroke-linejoin="bevel" fill="#eee" fill-opacity="0.5" fill-rule="evenodd" d="M632 302L632 298L635 295L632 292L626 290L630 283L628 279L624 280L624 282L623 281L621 285L621 293L619 296L608 299L610 299L617 306L616 307L618 311L618 316L620 316L620 318L622 318L625 321L625 316L629 316L630 313L626 310L626 304L628 302L632 302zM622 318L622 319zM623 319L623 319z" name="宁夏回族自治区"/>
      <path class="leaflet-interactive" stroke="#8B908F" stroke-opacity="0.5" stroke-width="1" stroke-linecap="butt" stroke-linejoin="bevel" fill="#eee" fill-opacity="0.5" fill-rule="evenodd" d="M545 243L541 238L538 229L536 229L537 226L533 226L521 218L511 218L505 216L504 217L502 215L501 216L499 211L502 206L500 203L502 199L501 195L499 195L495 186L489 182L486 183L482 181L482 179L477 175L478 174L475 173L475 168L473 170L468 169L468 173L463 178L461 177L457 181L459 190L457 194L453 196L444 195L437 192L431 210L431 212L434 214L433 216L428 215L427 213L425 215L418 217L417 216L412 219L416 222L416 228L419 235L419 238L416 240L417 241L414 244L415 249L410 253L398 258L397 260L395 260L395 262L388 262L383 269L380 268L378 270L378 266L374 268L371 267L372 269L370 269L367 272L366 271L363 274L364 277L361 278L362 283L363 282L362 285L365 288L366 286L371 288L373 296L372 297L374 299L372 301L368 301L379 306L381 308L380 313L383 315L384 314L392 319L397 318L397 322L399 324L398 326L404 330L412 328L413 323L416 321L416 319L428 321L433 316L435 316L438 319L443 320L455 315L457 317L460 316L465 311L469 311L472 309L482 309L492 313L494 311L500 313L502 309L499 306L504 302L498 296L498 290L495 291L494 288L512 283L517 266L523 265L527 259L533 254L535 254L536 256L538 253L540 253L543 249L541 246L543 244z" name="新疆维吾尔自治区"/>
      <path class="leaflet-interactive" stroke="#8B908F" stroke-opacity="0.5" stroke-width="1" stroke-linecap="butt" stroke-linejoin="bevel" fill="#eee" fill-opacity="0.5" fill-rule="evenodd" d="M738 439L741 444L742 438L746 433L750 421L750 415L744 415L739 421L737 427L735 428L737 438zM771 408L771 408zM762 410L763 409L762 410zM732 429L731 430zM764 408L764 408zM731 428L730 429L731 428zM731 431L731 431zM731 428L731 428zM751 411L751 411zM746 437L747 437zM747 442L747 442zM751 412L752 412zM730 432L730 432zM737 440L738 440z" name="台湾省"/>
      <path class="leaflet-interactive" stroke="#8B908F" stroke-opacity="0.5" stroke-width="1" stroke-linecap="butt" stroke-linejoin="bevel" fill="#eee" fill-opacity="0.5" fill-rule="evenodd" d="M687 438L687 440L685 440L686 441L690 439L687 438zM687 441L688 441zM689 439L689 439zM689 439L689 439zM689 439L689 439zM689 440L689 440zM689 439L689 439zM689 440L689 440zM689 440L689 440z" name="香港特别行政区"/>
      <path class="leaflet-interactive" stroke="#8B908F" stroke-opacity="0.5" stroke-width="1" stroke-linecap="butt" stroke-linejoin="bevel" fill="#eee" fill-opacity="0.5" fill-rule="evenodd" d="M683 442L683 441zM683 441L683 441z" name="澳门特别行政区"/>
      <path class="leaflet-interactive" stroke="#8B908F" stroke-opacity="0.5" stroke-width="1" stroke-linecap="butt" stroke-linejoin="bevel" fill="#eee" fill-opacity="0.5" fill-rule="evenodd" d="M755 430L757 420L755 430zM744 453L750 445L744 453zM730 477L735 468L730 477zM727 502L727 493L727 502zM724 534L723 536L726 527L725 530zM699 567L704 560L699 567zM673 596L669 597L677 594L674 595zM640 575L641 576L640 568L640 575zM655 532L657 529L657 525L656 531zM653 500L649 492L652 498z" name="100000_JD"/></g></svg>
